# xmcd
#
# Track frame offsets: 
#        183
#        13818
#        26705
#        39913
#        53705
#        66223
#        78138
#        91355
#        105118
#        119513
#        130230
#        142750
#        155963
#        168025
#
# Disc length: 2373 seconds
#
# Revision: 2
# Processed by: cddbd v1.5.2PL0 Copyright (c) Steve Scherf et al.
# Submitted via: ExactAudioCopy v0.95b4
#
DISCID=a909430e,ca0fc20e
DTITLE=Various Artist - So Many Roads
DYEAR=1992
DGENRE=Blues
TTITLE0=Albert King - Bad Luck (Blues)
TTITLE1=Albert King - (Be On Your) Merry Way
TTITLE2=Albert King - Murder
TTITLE3=Albert King - Searching For a Woman
TTITLE4=Albert King - California Blues
TTITLE5=Albert King - Wild Women
TTITLE6=Albert King - Won't Be Hangin' Around No More
TTITLE7=Albert King - Howlin' For My Darling
TTITLE8=Albert King - So Many Roads, So Many Trains
TTITLE9=Otis Rush - I'm Satisfied
TTITLE10=Otis Rush - So Close
TTITLE11=Otis Rush - All Your Love
TTITLE12=Otis Rush - You Know My Love
TTITLE13=Otis Rush - I Can't Stop Baby
EXTD=
EXTT0=
EXTT1=
EXTT2=
EXTT3=
EXTT4=
EXTT5=
EXTT6=
EXTT7=
EXTT8=
EXTT9=
EXTT10=
EXTT11=
EXTT12=
EXTT13=
PLAYORDER=
